<svg width="362" height="76" viewBox="0 0 362 76" fill="none" xmlns="http://www.w3.org/2000/svg">
  <defs>
    <linearGradient id="zenGradient" x1="24" y1="12" x2="320" y2="64" gradientUnits="userSpaceOnUse">
      <stop stop-color="#7D5AE6"/>
      <stop offset="1" stop-color="#5E6AE8"/>
    </linearGradient>
  </defs>
  <g fill="url(#zenGradient)">
    <path d="M31 11C21.6112 11 14 18.6112 14 28V31.2C8.7835 34.2092 5.5 39.8132 5.5 46.2C5.5 55.5642 12.5733 63.2291 21.695 64.1684C24.6988 69.8208 30.6388 73.5 37.3 73.5H43V11H31Z"/>
    <path d="M43 11H49.7C56.3612 11 62.3012 14.6792 65.305 20.3316C74.4267 21.2709 81.5 28.9358 81.5 38.3C81.5 44.6868 78.2165 50.2908 73 53.3V56.5C73 65.8888 65.3888 73.5 56 73.5H43V11Z"/>
    <rect x="27" y="19" width="8.5" height="46" rx="4.25"/>
    <rect x="50.5" y="19" width="8.5" height="46" rx="4.25"/>
    <rect x="39" y="7" width="8" height="60" rx="4"/>
  </g>
  <rect x="42.5" y="12" width="3" height="58" rx="1.5" fill="#FFFFFF" fill-opacity="0.28"/>
  <text x="98" y="52" fill="url(#zenGradient)" font-family="Poppins, Avenir Next, Segoe UI, Arial, sans-serif" font-size="52" font-weight="800" letter-spacing="-0.04em">ZenClass</text>
</svg>
